<?xml version="1.0" standalone="no"?>
<!DOCTYPE svg PUBLIC "-//W3C//DTD SVG 1.1//EN" "http://www.w3.org/Graphics/SVG/1.1/DTD/svg11.dtd">
<svg xmlns="http://www.w3.org/2000/svg">
<metadata>Generated by Fontastic.me</metadata>
<defs>
<font id="x-kassa" horiz-adv-x="512">
<font-face font-family="x-kassa" units-per-em="512" ascent="480" descent="-32"/>
<missing-glyph horiz-adv-x="512" />

<glyph glyph-name="arrow-down" unicode="&#97;" d="M406 150l-150-150-150 150 37 37 87-86 0 411 52 0 0-411 87 86z"/>
<glyph glyph-name="arrow-up" unicode="&#98;" d="M369 325l-87 86 0-411-52 0 0 411-87-86-37 37 150 150 150-150z"/>
<glyph glyph-name="drag-and-drop-1-normal" unicode="&#100;" d="M417 125l-105 0 0 7 105 0c49 0 89 40 89 89 0 49-39 88-89 88l-2 0-1 5c-17 69-79 116-150 116-62 0-116-34-141-91l-2-4-3 1c-3 1-6 1-9 1-57 0-103-46-103-103 0-57 46-102 103-102l92 0 0-7-92 0c-60 0-109 49-109 109 0 60 49 110 109 110 3 0 5-1 8-1 27 58 83 94 147 94 74 0 138-50 156-121 52-2 92-43 92-95 0-53-43-96-95-96z m-110 93l-51 51-51-51 5-5 43 43 0-183 7 0 0 183 43-43z"/>
<glyph glyph-name="drag-and-drop-2-progress" unicode="&#101;" d="M204 220c0-5-4-10-9-10-6 0-10 5-10 10 0 6 4 10 10 10 5 0 9-4 9-10z m49 10c-6 0-10-4-10-10 0-5 4-10 10-10 5 0 9 5 9 10 0 6-4 10-9 10z m58 0c-5 0-10-4-10-10 0-5 5-10 10-10 5 0 10 5 10 10 0 6-5 10-10 10z m109 63l0 0c-18 72-82 122-156 122-64 0-120-36-146-94-3 1-6 1-9 1-59 0-109-52-109-113 0-62 49-112 109-112l307 0c52 0 96 45 96 99 0 52-41 95-92 97z m-4-189l-307 0c-56 0-102 47-102 105 0 58 47 106 102 106 3 0 6 0 9-1l3-1 2 4c25 57 79 91 141 91 71 0 132-48 150-116l1-6 2 0c49 0 88-41 88-90 0-50-40-92-89-92z"/>
<glyph glyph-name="drag-and-drop-3-fail" unicode="&#102;" d="M229 262c0-5-4-9-10-9-5 0-9 4-9 9 0 6 4 10 9 10 6 0 10-4 10-10z m68 10c-5 0-9-4-9-10 0-5 4-9 9-9 6 0 10 4 10 9 0 6-4 10-10 10z m-38-49c-27 0-48-21-48-48l6 0c0 23 19 42 42 42 24 0 43-19 43-42l6 0c0 27-22 48-49 48z m161 70l0 0c-18 72-82 122-156 122-64 0-120-36-146-94-3 1-6 1-9 1-59 0-109-52-109-113 0-62 49-112 109-112l307 0c52 0 96 45 96 99 0 52-41 95-92 97z m-4-189l-307 0c-56 0-102 47-102 105 0 58 47 106 102 106 3 0 6 0 9-1l3-1 2 4c25 57 79 91 141 91 71 0 132-48 150-116l1-6 2 0c49 0 88-41 88-90 0-50-40-92-89-92z"/>
<glyph glyph-name="footer-mastercard" unicode="&#103;" d="M484 276c0 5 4 10 10 10 5 0 9-5 9-10 0-6-4-11-9-11-6 0-10 5-10 11z m10-8c4 0 7 3 7 8 0 4-3 7-7 7-4 0-8-3-8-7 0-5 4-8 8-8z m-2 3l-2 0 0 9 4 0c1 0 1 0 2 0 1-1 1-2 1-3 0-1 0-2-1-2l1-4-2 0-1 4-2 0z m0 5l1 0c1 0 1 0 2 0 0 1 0 1 0 1 0 1 0 1 0 1-1 0-1 0-2 0l-1 0 0-2z m-146 67c-1 1-2 1-4 1l-6 2c-2 1-5 1-8 1-21 0-36-20-36-48 0-21 11-34 28-34 5 0 9 0 15 2l2 18c-5-3-9-4-13-4-10 0-15 7-15 19 0 18 8 30 20 30 5 0 9-1 15-4z m-53-12c-1 0-1 0-2 0-5 0-8-3-13-10l1 10-14 0-10-65 16 0c6 40 7 46 15 46 0 0 0 0 1 0 2 8 3 14 6 19z m-97-64l2 14c-1 0-2 0-4 0-4 0-6 1-6 4 0 1 1 2 1 3l4 27 8 0 2 16-8 0 2 9-16 0-7-44-1-5-1-6c0-2 0-4 0-6 0-9 4-14 13-14 3 0 7 1 11 2z m-63 43c0-8 3-14 12-18 6-3 7-4 7-7 0-4-3-6-9-6-5 0-9 1-14 3l-3-15 1 0 3-1c1 0 2 0 4 0 4-1 7-1 9-1 17 0 25 7 25 22 0 8-3 14-11 18-7 3-8 4-8 7 0 3 3 5 8 5 3 0 7-1 11-1l3 15c-4 0-11 1-14 1-18 0-25-10-24-22z m342-44l-16 0 1 7c-4-5-9-8-15-8-12 0-19 11-19 27 0 21 12 40 26 40 6 0 11-3 15-9l4 22 16 0z m-24 15c7 0 13 9 13 22 0 8-3 13-9 13-7 0-12-9-12-22 0-8 2-13 8-13z m-204-13c-5-2-11-3-16-3-18 0-28 10-28 29 0 22 12 38 28 38 14 0 22-9 22-23 0-5 0-10-2-16l-32 0c0-1 0-2 0-2 0-8 5-11 14-11 6 0 11 1 17 4z m-9 38c0 1 0 2 0 3 0 5-3 8-7 8-6 0-9-4-11-11z m-170-40l12 79-25 0-15-49-1 49-23 0-13-79 15 0 10 61 1-61 11 0 21 61-9-61z m41 29c-1 0-2 0-3 0-9 0-14-3-14-10 0-4 2-6 6-6 6 0 11 6 11 16z m12-29l-13 0 0 7c-4-5-10-8-17-8-9 0-15 7-15 18 0 15 11 24 29 24 1 0 4 0 6 0 1 2 1 3 1 4 0 4-3 6-10 6-5 0-10-1-14-2l-2 0-2-1 3 15c8 2 13 3 19 3 14 0 21-6 21-19 0-3 0-5-1-13l-4-22 0-5 0-3-1-2z m253 29c-2 0-3 0-4 0-9 0-13-3-13-10 0-4 2-6 5-6 7 0 12 6 12 16z m12-29l-14 0 1 7c-4-5-10-8-17-8-9 0-15 7-15 18 0 15 10 24 28 24 2 0 4 0 7 0 0 2 1 3 1 4 0 4-3 6-11 6-4 0-10-1-13-2l-3 0-1-1 2 15c8 2 14 3 20 3 13 0 21-6 21-19 0-3 0-5-1-13l-4-22 0-5-1-3 0-2z m45 65c-1 0-1 0-2 0-5 0-8-3-13-10l1 10-14 0-10-65 16 0c6 40 7 46 15 46 1 0 0 0 1 0 2 8 4 14 6 19z m-68-127c0-15-4-23-12-23-5-1-8 5-8 14 0 10 5 22 12 22 6 0 8-7 8-13z m16 0c0 16-8 28-23 28-17 0-29-15-29-38 0-16 7-29 23-29 17 0 29 12 29 39z m-47 40c-1 0-1 1-3 1l-6 2c-2 1-5 1-7 1-20 0-34-20-34-48 0-21 10-34 26-34 4 0 8 0 14 2l2 18c-5-3-9-4-13-4-8 0-14 7-14 19 0 18 8 30 20 30 4 0 8-1 13-4z m-99-12c-1 0-1 0-2 0-5 0-8-3-12-10l1 9-13 0-10-64 15 0c6 39 7 46 14 46 1 0 1 0 2 0 1 8 3 14 5 19z m196-64l-14 0 1 6c-4-5-9-7-14-7-11 0-18 11-18 27 0 21 11 39 24 39 6 0 11-3 15-9l3 23 15 0z m-22 15c7 0 12 9 12 22 0 8-3 12-8 12-7 0-12-9-12-21 0-9 3-13 8-13z m-315-15c-6-2-11-3-16-3-17 0-25 10-25 29 0 22 11 39 26 39 12 0 20-9 20-24 0-5 0-9-2-16l-30 0c0-1 0-1 0-2 0-7 5-11 13-11 6 0 11 1 16 4z m-9 38c0 2 0 3 0 4 0 5-2 8-7 8-5 0-8-4-10-12z m188-38c-5-2-10-3-16-3-17 0-25 10-25 29 0 22 11 39 26 39 12 0 20-9 20-24 0-5 0-9-2-16l-30 0c0-1 0-1 0-2 0-7 5-11 14-11 5 0 10 1 15 4z m-9 38c0 2 0 3 0 4 0 5-2 8-7 8-5 0-8-4-9-12z m219-38c-5-2-10-3-16-3-16 0-25 10-25 29 0 22 11 39 26 39 12 0 20-9 20-24 0-5 0-9-1-16l-30 0c-1-1-1-1-1-2 0-7 5-11 14-11 5 0 10 1 15 4z m-9 38c0 2 0 3 0 4 0 5-2 8-7 8-4 0-8-4-9-12z m-425 23l4 16c-4 3-11 4-18 4-12 0-25-7-25-27 0-23 22-18 22-31 0-9-8-10-12-10-5 0-11 2-14 5l-4-17c5-2 12-4 18-4 13 0 28 6 28 28 0 25-23 21-23 32 0 6 5 8 11 8 6 0 10-2 13-4z m89-61l2 17c-4-2-6-3-10-3-7 0-11 6-11 14 0 13 6 20 14 20 3 0 7-1 10-3l3 15c-4 3-10 4-14 4-17 0-29-16-29-37 0-16 8-29 21-29 6 0 11 1 14 2z m56 16l7 47-16 0-4-29c-1-10-5-18-12-18-4 0-6 4-6 8 0 3 1 6 1 9l5 30-17 0-4-29c-1-7-1-10-1-14 0-12 5-22 14-22 8 0 13 5 18 12l0 0-1-11 14 0c0 6 1 12 2 17z m304-16l0 11 3 0 0 2-9 0 0-2 3 0 0-11 3 0z m16 0l0 13-4 0-2-10 0 0-2 10-3 0 0-13 2 0 0 11 0 0 2-11 3 0 2 11 0 0 0-11z"/>
<glyph glyph-name="footer-pci" unicode="&#104;" d="M264 266c0-4-3-7-8-7-2 0-5 1-6 2l1 2c1-1 3-1 5-1 4 0 5 1 5 4 0 2-1 3-4 4-4 2-6 4-6 7 0 4 3 7 7 7 3 0 4-1 5-2l0-2c-1 0-3 1-5 1-3 0-4-2-4-4 0-2 1-3 4-4 4-2 6-3 6-7z m4 2c0 5 3 9 7 9 6 0 7-5 7-8 0-1 0-1 0-1l-12 0c0-5 3-6 6-6 3 0 4 0 5 1l0-3c-1 0-2-1-5-1-5 0-8 4-8 9z m2 2l9 0c0 2 0 5-4 5-3-1-4-3-5-5z m28-7c-1-1-2-1-4-1-3 0-6 2-6 6 0 4 2 7 6 7 2 0 3-1 4-1l0 2c0 0-2 1-4 1-5 0-9-4-9-9 0-5 3-9 8-9 3 0 5 1 5 1z m18 1l0 0 0 13-3 0 0-11c0 0 0-1 0-1-1-2-2-3-4-3-3 0-4 2-4 5l0 10-3 0 0-10c0-6 3-8 6-8 3 0 5 2 5 3l1-2 2 0c0 1 0 2 0 4z m5-5l3 0 0 9c0 1 0 1 0 2 1 2 2 4 4 4 1 0 1 0 2 0l0 3c-1 0-1 0-1 0-2 0-4-2-5-4l0 3-3 0c0-1 0-3 0-5z m15 22c0 2-1 3-2 3-1 0-2-1-2-3 0-1 1-2 2-2 2 0 2 1 2 2z m0-22l0 17-3 0 0-17 3 0z m9 21l-3-1 0-3-3 0 0-2 3 0 0-9c0-2 0-4 1-5 1-1 2-1 3-1 1 0 2 0 3 0l0 3c-1-1-1-1-2-1-2 0-2 2-2 4l0 9 4 0 0 2-4 0z m18-3l-3-10c0-2-1-3-1-4 0 1-1 2-1 3l-4 10 0 0-4 0 7-15c0-1 0-1 0-1 0 0 0-1 0-1-1-1-2-3-3-3-1-1-2-2-3-2l1-2c1 0 2 0 4 2 2 2 4 4 6 10l5 13-4 0z m-105-39c-3 1-4 2-4 4 0 2 1 4 4 4 2 0 4-1 5-1l0 2c-1 1-2 2-5 2-4 0-7-3-7-7 0-3 2-5 6-7 3-1 4-2 4-4 0-3-1-4-5-4-2 0-4 0-5 1l-1-2c1-1 4-2 6-2 5 0 8 3 8 7 0 4-2 5-6 7z m14 7l-3 0 0-3-3 0 0-3 3 0 0-9c0-2 0-4 1-4 1-1 2-2 4-2 1 0 2 0 2 1l0 2c0 0-1 0-2 0-1 0-2 1-2 3l0 9 5 0 0 2-5 0z m20-10l0-7 0 0c0-1 0-2 0-4l-3 0 0 2c-1-1-3-2-5-2-3 0-5 2-5 5 0 4 3 6 10 6l0 1c0 1-1 4-4 4-1 0-3-1-4-2l-1 2c1 1 3 2 6 2 5 0 6-4 6-7z m-3-2c-3 0-7 0-7-4 0-2 1-3 3-3 2 0 3 2 4 3 0 0 0 1 0 1z m16 9c-3 0-5-2-5-3l-1 2-2 0c0-1 0-2 0-4l0-13 3 0 0 11c0 0 0 0 0 1 1 2 2 3 4 3 3 0 4-2 4-5l0-10 3 0 0 11c0 5-4 7-6 7z m26-13c0-2 0-3 0-5l-3 0 0 3c-1-1-3-3-5-3-5 0-8 3-8 9 0 5 4 9 8 9 3 0 4-2 5-3l0 10 3 0 0-20z m-3 6c0 0 0 0 0 1-1 2-3 4-5 4-3 0-5-3-5-7 0-3 2-6 5-6 2 0 4 1 4 3 1 1 1 1 1 2l0 3z m20 0l0-7 0 0c0-1 0-2 0-4l-2 0-1 2c-1-1-2-2-5-2-3 0-5 2-5 5 0 4 4 6 10 6l0 1c0 1 0 4-4 4-1 0-3-1-4-2l-1 2c1 1 3 2 6 2 5 0 6-4 6-7z m-3-2c-4 0-7 0-7-4 0-2 1-3 3-3 2 0 3 2 4 3 0 0 0 1 0 1z m11 5l0 0-1 3-2 0c0-1 0-3 0-5l0-12 3 0 0 9c0 1 0 1 0 2 1 2 2 4 4 4 1 0 1 0 2 0l0 3c-1 0-1 0-1 0-2 0-4-2-5-4z m23-9c0-2 0-3 0-5l-3 0 0 3c-1-1-3-3-6-3-4 0-7 3-7 9 0 5 3 9 8 9 2 0 4-2 5-3l0 10 3 0 0-20z m-3 6c0 0 0 0 0 1-1 2-3 4-5 4-3 0-5-3-5-7 0-3 2-6 5-6 2 0 4 1 5 3 0 1 0 1 0 2z m13-1c-2 1-3 2-3 3 0 1 1 2 3 2 1 0 3 0 3-1l1 3c-1 0-2 1-4 1-4 0-6-2-6-5 0-2 1-4 5-5 2-1 3-1 3-3 0-1-1-3-3-3-2 0-4 1-5 2l0-3c1-1 3-1 5-1 4 0 6 2 6 5 0 3-2 4-5 5z m27 12c2 0 4-1 5-1l1 2c-1 1-3 1-6 1-7 0-12-5-12-12 0-8 5-12 11-12 3 0 6 1 7 1l-1 2c-1 0-3-1-5-1-5 0-9 4-9 10 0 6 4 10 9 10z m24-13c0-6-4-9-8-9-5 0-8 3-8 9 0 5 4 9 8 9 5 0 8-4 8-9z m-3 0c0 3-1 7-5 7-4 0-5-4-5-7 0-4 2-7 5-7 3 0 5 3 5 7z m18-2c0 0 0-1 0-1 0-2-2-3-4-3-3 0-4 2-4 5l0 10-3 0 0-10c0-6 3-8 6-8 3 0 5 2 6 3l0-2 3 0c-1 1-1 2-1 4l1 0 0 13-4 0z m17 11c-3 0-5-2-6-3l0 2-3 0c1-1 1-2 1-4l0-13 3 0 0 11c0 0 0 0 0 1 0 2 2 3 4 3 3 0 4-2 4-5l0-10 3 0 0 11c0 5-4 7-6 7z m19-2c2 0 3-1 3-1l1 2c-1 0-2 1-4 1-6 0-9-4-9-9 0-5 3-9 8-9 3 0 4 1 5 1l-1 3c0-1-2-1-3-1-4 0-6 2-6 6 0 4 2 7 6 7z m8-16l3 0 0 17-3 0z m1 25c-1 0-2-1-2-2 0-2 1-2 2-2 1 0 2 0 2 2 0 1-1 2-2 2z m7-25l3 0 0 25-3 0z m-443 48l-3 0 0-16 3 0c3 0 7 1 9 2 2 1 3 3 3 6 0 6-4 8-12 8z m127 61l44-97-37-12 0 62-24 0 0-62 23 0-143-45-53 144z m-93-68c0 7-3 12-8 15-6 4-14 6-25 6l-27 0 0-62 23 0 0 18 4 0c5 0 9 1 13 2 5 1 8 2 11 4 3 2 5 4 7 7 1 3 2 6 2 10z m66-24c-3-1-6-2-8-2-3-1-6-1-9-1-2 0-5 0-7 1-3 1-5 2-7 3-2 1-3 3-4 5-1 2-2 5-2 8 0 5 2 9 5 12 4 3 8 5 13 5 4 0 7-1 10-2 3 0 5-2 8-3l0 17c-3 1-3 1-7 2-4 0-8 0-13 0-6 0-11 0-16-2-5-1-9-4-13-6-4-3-6-7-8-10-2-5-3-9-3-14 0-4 1-9 3-13 1-3 4-7 8-10 3-2 8-4 13-6 5-1 11-2 17-2 5 0 9 0 13 1 3 1 4 1 7 2l0 15z m32 74c-3 2-6 3-10 3-4 0-8-1-10-3-3-3-4-6-4-10 0-4 1-7 4-10 2-2 6-3 10-3 4 0 7 1 10 3 3 3 4 6 4 10 0 4-1 8-4 10z m310-38c1-1 1-2 1-2l-2 0c-1 0-1 1-1 1 0 1 0 1-1 1l-1 0 0-2-1 0 0 6c0 0 1 0 2 0 2 0 3 0 3 0 0 0 1-1 1-2 0 0-1-1-2-1 1 0 1-1 1-1z m-1 2c0 0-1 1-2 1 0 0 0 0 0 0l0-2 0 0c1 0 2 0 2 1z m-2-8c-4 0-7 3-7 7 0 4 3 7 7 7 5 0 8-3 8-7 0-4-3-7-8-7z m5 7c0 3-2 5-5 5-2 0-4-2-4-5 0-3 2-5 4-5 3 0 5 2 5 5z"/>
<glyph glyph-name="footer-popel" unicode="&#105;" d="M411 57c0-32-26-57-57-57-32 0-57 25-57 57 0 31 25 57 57 57 31 0 57-26 57-57z m-130 455l-204 0 0-495 105 0 0 192 99 0c55 0 154 47 154 152 0 111-99 151-154 151m-31-214l-68 0 0 124 68 0c0 0 74 2 74-62 0-65-74-62-74-62"/>
<glyph glyph-name="footer-ssl" unicode="&#106;" d="M512 239l0 34-20 0c-1 9-2 18-3 27l19 6-9 33-19-6c-3 9-7 18-11 26l17 10-17 30-17-10c-5 8-10 15-16 22l13 14-24 24-13-14c-7 6-15 12-23 18l10 16-30 17-9-16c-8 4-17 8-26 11l5 18-33 9-5-18c-9 2-18 3-28 4l0 18-34 0 0-18c-9-1-19-2-28-3l-5 17-32-9 4-17c-9-3-18-6-26-11l-9 15-30-17 9-14c-8-6-16-11-23-18l-12 12-24-24 12-12c-6-7-12-14-18-22l-14 8-17-30 14-8c-4-8-8-17-11-26l-16 4-9-33 16-4c-2-9-3-19-4-29l-16 0 0-34 16 0c1-10 2-19 4-28l-16-5 9-33 16 5c3-9 7-18 11-27l-14-8 17-30 14 9c5-8 11-16 18-23l-12-12 24-24 12 12c7-6 15-12 22-17l-8-15 30-17 8 15c9-4 17-8 27-11l-5-17 33-9 5 17c9-1 18-2 28-3l0-18 34 0 0 18c9 1 19 2 28 4l5-18 33 9-5 18c9 3 17 7 26 11l9-16 30 17-10 16c8 5 15 11 22 17l14-13 24 24-14 14c6 7 12 14 17 22l17-10 17 30-17 9c4 9 8 17 11 26l19-5 9 33-20 5c2 9 3 18 4 28l20 0z m-327-45c-8-7-20-10-36-10-8 0-15 0-21 1-5 2-10 4-14 7-4 3-7 7-9 12-3 5-4 11-4 18l0 5 36 0 0-3c0-6 1-10 3-13 2-2 5-3 9-3 4 0 6 1 8 4 2 2 3 5 3 9 0 5-1 8-4 11-3 3-6 5-10 7-5 2-9 4-14 6-5 2-10 4-14 7-4 4-8 8-11 13-2 5-4 12-4 20 0 14 4 25 12 32 7 8 19 12 34 12 16 0 28-4 35-11 7-7 10-18 10-33l-34 0 0 4c0 4-1 7-2 10-2 3-5 5-8 5-4 0-7-2-9-4-2-3-2-5-2-9 0-4 1-8 4-10 3-3 7-5 11-7 4-2 9-4 14-6 5-2 10-5 15-8 4-4 8-8 11-13 3-6 4-12 4-21 0-15-4-26-13-32z m116 0c-9-7-21-10-37-10-8 0-15 0-20 1-6 2-11 4-15 7-4 3-7 7-9 12-2 5-3 11-3 18l0 5 35 0 0-3c0-6 1-10 3-13 2-2 5-3 9-3 4 0 7 1 9 4 2 2 3 5 3 9 0 5-2 8-5 11-2 3-6 5-10 7-4 2-9 4-14 6-5 2-10 4-14 7-4 4-8 8-10 13-3 5-5 12-5 20 0 14 4 25 12 32 7 8 19 12 34 12 16 0 28-4 35-11 7-7 11-18 11-33l-35 0 0 4c0 4 0 7-2 10-2 3-4 5-8 5-4 0-7-2-9-4-1-3-2-5-2-9 0-4 1-8 4-10 3-3 7-5 11-7 5-2 9-4 14-6 6-2 10-5 15-8 4-4 8-8 11-13 3-6 4-12 4-21 0-15-4-26-12-32z m116-8l-81 0 0 140 37 0 0-111 44 0z"/>
<glyph glyph-name="footer-visa" unicode="&#107;" d="M174 230l5 33 16-33 28 0-21 35c11 3 20 11 22 23 2 15-3 27-25 27l-34 0-13-85z m11 68l6 0c6 0 11-4 10-10-1-6-7-11-13-11l-7 0z m166-68l14 85-22 0-14-85z m-87 85l-22 0-14-85 22 0z m-214 33l3-39 3 0 32 54 0 2-73 0 0-2z m78 53c-28-44-55-89-82-136l-5 62-41 0 0-2c12-2 16-10 18-27l7-68 30 0c28 58 57 114 86 171z m292-153l-27 0 3 16 25 0 3 18-25 0 2 15 26 0 3 18-48 0-14-85 49 0z m-125 16l24 0 3 18-24 0 2 15 27 0 3 18-49 0-14-85 22 0z m177 51l-29 0-13-85 28 0c28 0 50 18 54 43 2 17-6 42-40 42z m17-42c-3-15-14-25-28-25-2 0-4 0-6 0l7 49c2 0 4 0 5 0 17 0 23-12 22-24z m-70-94c-5 2-12 5-12 10 0 4 5 6 10 6 8 1 14-2 19-3 1 5 2 10 2 16-18 6-40 2-48-8-3-4-5-9-5-15 0-8 7-14 13-17 5-3 16-6 16-12 0-4-5-7-10-7-9-1-18 2-25 5 0-6-1-11-2-17 16-6 40-5 51 5 4 4 8 11 8 18-1 11-9 15-17 19z m-76-45l20 0 13 76-21 0z m-220 163l26 0 3 18-48 0-14-85 49 0 3 18-27 0 2 16 26 0 3 18-26 0z m353-87c-3 0-8-1-10-3-1-2-3-6-4-9l-28-64c7 0 14 0 22 0l4 12c9 0 18 0 26 0 1-4 2-8 3-12 6 0 12 0 19 0l-17 76-15 0z m-10-49l10 28 7-28z m-283 21c-6 0-11-2-15-6l5 34-14 0-11-76 14 0 1 6c3-5 7-7 13-7 11 0 22 11 24 24 2 14-6 25-17 25z m-9-35c-6 0-9 4-8 10 0 6 5 11 11 11 5 0 9-5 8-11-1-6-6-10-11-10z m152 63c-7-17-14-35-21-51l-2 10c0 0 0 0 0 0l0-2-7 35c-1 6-5 8-9 8l-34 0 0-2c7-1 15-4 22-9l0 1c0-1 0-1 0-1 0 0 0 0 0 0l18-65 22 0c11 26 22 50 32 76-7 0-14 0-21 0z m-35-23c1-1 1-1 1-1 1-1 1-1 1-2 1 0 2-1 2-2 0 0 0 0 0 0-1 1-2 3-4 5z m5-5c0 0 0 0 0 0 0-1 1-2 1-3 0 1-1 2-1 3z m-70-25l-8 24-17 0 15-41-19-29 17 0 44 70-17 0z"/>
<glyph glyph-name="header-notification" unicode="&#108;" d="M420 206l0 142c0 91-74 164-164 164-90 0-164-73-164-164l0-142c0-42-31-76-72-81l0-42 472 0 0 42c-41 5-72 39-72 81z m-164-206c23 0 41 18 41 41l-82 0c0-23 18-41 41-41z"/>
<glyph glyph-name="input-not-ok" unicode="&#109;" d="M256 465l-256-418 512 0z m23-360l-46 0 0 46 46 0z m-46 81l0 117 46 0 0-117z"/>
<glyph glyph-name="input-ok" unicode="&#110;" d="M256 512c-141 0-256-115-256-256 0-141 115-256 256-256 141 0 256 115 256 256 0 141-115 256-256 256z m-30-348l-80 80 36 36 44-44 110 110 37-36z"/>
<glyph glyph-name="input-pas-invisible" unicode="&#111;" d="M420 243c-40-33-90-55-147-59l0-82-34 0 0 82c-57 4-107 26-147 59l-67-68-25 25 68 68c-34 39-54 88-54 142l35 0c0-106 93-192 207-192 114 0 207 86 207 192l35 0c0-54-20-103-54-142l68-68-25-25z"/>
<glyph glyph-name="input-pass-visible" unicode="&#112;" d="M512 136l-37 0c0 112-98 203-219 203-121 0-219-91-219-203l-37 0c0 132 115 240 256 240 141 0 256-108 256-240z m-256 132c-31 0-55-24-55-55 0-30 24-55 55-55 31 0 55 25 55 55 0 31-24 55-55 55z"/>
<glyph glyph-name="select-down" unicode="&#113;" d="M512 384l-256-256-256 256"/>
<glyph glyph-name="select-up" unicode="&#114;" d="M0 128l256 256 256-256"/>
<glyph glyph-name="settings" unicode="&#115;" d="M444 256c0 10-1 19-3 28l71 41-68 118-71-41c-14 12-31 22-49 29l0 81-136 0 0-81c-18-7-35-17-49-29l-71 41-68-118 71-41c-2-9-3-18-3-28 0-10 1-19 3-28l-71-41 68-118 71 41c14-12 31-22 49-29l0-81 136 0 0 81c18 7 35 17 49 29l71-41 68 118-71 41c2 9 3 18 3 28z m-188-90c-50 0-90 40-90 90 0 50 40 90 90 90 50 0 90-40 90-90 0-50-40-90-90-90z"/>
<glyph glyph-name="sign-out" unicode="&#116;" d="M363 403l-45-45 64-64-250 0 0-76 244 0-58-58 45-45 145 144z m-179-262l-103 0 0 230 103 0 0-25 76 0 0 102-256 0 0-384 256 0 0 102-76 0z"/>
<glyph glyph-name="tab-1-basic-settings" unicode="&#117;" d="M135 40l-135 0 0 432 135 0z m188 432l-134 0 0-432 134 0z m189 0l-135 0 0-432 135 0z"/>
<glyph glyph-name="tab-2-interface" unicode="&#118;" d="M512 512l0-128-512 0 0 128z m-384-192l0-320-128 0 0 320z m384 0l0-320-320 0 0 320z"/>
<glyph glyph-name="tab-3-security" unicode="&#119;" d="M57 480c0-84 0-168 0-253 0-38 13-70 39-98 45-49 99-90 160-123 61 29 115 71 163 124 24 27 36 59 36 96 0 84 0 169 0 254-133 34-265 35-398 0z m174-309l-87 87 39 39 48-47 119 120 40-40z"/>
<glyph glyph-name="tab-4-notification" unicode="&#120;" d="M415 231l0 115c0 88-71 159-159 159-88 0-159-71-159-159l0-115c0-40-31-73-70-78l0-41 458 0 0 41c-39 5-70 38-70 78z m-159-224c22 0 40 18 40 40l-80 0c0-22 18-40 40-40z"/>
<glyph glyph-name="table-link" unicode="&#121;" d="M461 154l51 0 0-154-512 0 0 512 154 0 0-51-103 0 0-410 410 0z m-205 358l0-51 169 0-238-238 36-36 238 238 0-169 51 0 0 256z"/>
<glyph glyph-name="table-settings" unicode="&#122;" d="M444 256c0 10-1 19-3 28l71 41-68 118-71-40c-14 11-31 21-49 28l0 81-136 0 0-81c-18-7-35-17-49-28l-71 40-68-118 71-41c-2-9-3-18-3-28 0-10 1-19 3-28l-71-41 68-118 71 40c14-11 31-21 49-28l0-81 136 0 0 81c18 7 35 17 49 28l71-40 68 118-71 41c2 9 3 18 3 28z m-188-90c-49 0-90 41-90 90 0 49 41 90 90 90 49 0 90-41 90-90 0-49-41-90-90-90z m0 154c-35 0-64-29-64-64 0-35 29-64 64-64 35 0 64 29 64 64 0 35-29 64-64 64z"/>
<glyph glyph-name="table-statistics" unicode="&#65;" d="M114 14l-114 0 0 313 114 0z m199 484l-114 0 0-484 114 0z m199-114l-114 0 0-370 114 0z"/>
<glyph glyph-name="table-transfer" unicode="&#66;" d="M512 363l0-150c0-24-19-42-42-42l-150 0 0 128-128 0 0-128-149 0c-23 0-43 18-43 42l0 150z m-512 64l0-22 512 0 0 22c0 23-19 42-42 42l-427 0c-24 0-43-19-43-42z m300-278l0 130-86 0 0-130-64 0 107-106 107 106z"/>
<glyph glyph-name="user-dd-accaunt" unicode="&#67;" d="M315 217c56 23 95 78 95 141 0 85-69 154-154 154-85 0-154-69-154-154 0-63 39-118 95-141-113-20-197-96-197-217l512 0c0 121-84 197-197 217z"/>
<glyph glyph-name="checkbox" unicode="&#99;" d="M174 65l-174 174 44 44 130-129 294 293 44-44z"/>
<glyph glyph-name="search" unicode="&#68;" d="M512 42l-164 164c23 32 37 71 37 113 0 107-86 193-192 193-107 0-193-86-193-193 0-106 86-192 193-192 42 0 81 14 113 37l164-164z m-319 144c-74 0-134 60-134 133 0 74 60 134 134 134 73 0 133-60 133-134 0-73-60-133-133-133z"/>
<glyph glyph-name="filter" unicode="&#69;" d="M253 419c-11 40-47 70-90 70-43 0-79-30-90-70l-73 0 0-47 73 0c11-40 47-69 90-69 43 0 79 29 90 69l259 0 0 47z m-90-70c-26 0-47 21-47 47 0 25 21 46 47 46 26 0 46-21 46-46 0-26-20-47-46-47z m186-140c-43 0-79-29-90-69l-259 0 0-47 259 0c11-40 47-70 90-70 43 0 79 30 90 70l73 0 0 47-73 0c-10 40-47 69-90 69z m0-139c-26 0-46 21-46 46 0 26 20 47 46 47 26 0 47-21 47-47 0-25-21-46-47-46z"/>
<glyph glyph-name="arrow" unicode="&#70;" d="M237 43l37 40-156 146 386 0 0 55-385 0 155 145-37 40-229-213z"/>
<glyph glyph-name="fail" unicode="&#71;" d="M256 497c133 0 241-108 241-241 0-133-108-241-241-241-133 0-241 108-241 241 0 133 108 241 241 241m0 15c-141 0-256-115-256-256 0-141 115-256 256-256 141 0 256 115 256 256 0 141-115 256-256 256z m-68-187c-10 0-17-7-17-16 0-10 7-17 17-17 9 0 16 7 16 17 0 9-7 16-16 16z m134 0c-9 0-17-7-17-16 0-10 8-17 17-17 10 0 17 7 17 17 0 9-7 16-17 16z m-65-79c-48 0-86-42-86-86l15 0c0 36 31 71 71 71 39 0 72-35 72-71l14 0c0 44-39 86-86 86z"/>
<glyph glyph-name="success" unicode="&#74;" d="M228 165l-94 92 10 10 83-81 148 148 10-10z m28 332c-133 0-241-108-241-241 0-133 108-241 241-241 133 0 241 108 241 241 0 133-108 241-241 241m256-241c0-141-115-256-256-256-141 0-256 115-256 256 0 141 115 256 256 256 141 0 256-115 256-256z"/>
<glyph glyph-name="tab-cardtab-bank" unicode="&#75;" d="M100 289l45 0 0-200-45 0z m356-244l0-45-400 0 0 45z m-267 244l45 0 0-200-45 0z m89 0l45 0 0-200-45 0z m89 0l45 0 0-200-45 0z m89 45l-400 0 0 44 200 134 200-134z"/>
<glyph glyph-name="tab-card" unicode="&#76;" d="M0 320l0-171c0-23 19-42 43-42l426 0c24 0 43 19 43 42l0 171z m43 85l426 0c24 0 43-19 43-42l-512 0c0 23 19 42 43 42z"/>
<glyph glyph-name="tab-cash" unicode="&#77;" d="M473 345l0-217-394 0 0-39 433 0 0 256z m-233-65l0-40c6 0 10 4 12 6 4 6 4 10 4 16 0 4 0 8-4 10-2 4-6 6-12 8z m-23 61c-2-4-4-6-4-10 0-4 2-6 4-10 2-4 6-6 9-8l0 34c-3-2-7-4-9-6z m-217 82l0-256 433 0 0 256z m270-189c-8-8-18-13-30-15l0-18-14 0 0 18c-11 2-21 5-27 11-8 8-12 18-14 32l26 2c2-6 4-10 6-14 2-4 6-6 9-8l0 42c-13 4-21 9-27 17-8 8-10 16-10 28 0 10 4 20 10 27 6 8 16 12 27 12l0 10 14 0 0-10c10-2 20-4 26-10 6-6 10-13 12-23l-26-4c-2 8-6 14-12 16l0-40c16-4 28-10 32-16 6-5 8-15 8-25 2-14-2-24-10-32z"/>
<glyph glyph-name="tab-e-money" unicode="&#78;" d="M238 291c-2-4-4-6-4-9 0-4 2-6 4-10 2-3 5-5 9-7l0 31c-4 0-6-2-9-5z m22-57l0-37c5 0 9 4 11 6 1 2 3 7 3 13 0 3-2 7-3 11-2 3-6 7-11 7z m159 55c-19 69-83 122-158 122-64 0-118-38-144-93l0-2c-4 0-7 0-11 0-58 0-106-49-106-108 0-58 48-109 106-109 0 0 102 0 102 0 0 0 207 0 207 0 51 0 93 45 93 97-1 49-40 91-89 93z m-130-97c-7-7-17-13-28-15l0-16-12 0 0 16c-11 2-20 6-26 11-7 8-11 17-13 28l24 2c2-6 4-10 6-13 1-4 5-6 9-8l0 43c-13 3-20 9-26 16-5 7-9 15-9 26 0 9 4 18 9 25 6 8 15 11 26 11l0 7 12 0 0-9c10-1 19-3 24-9 4-5 8-13 9-22l-23-3c-2 7-6 12-11 14l0-36c14-4 25-9 29-15 5-5 7-15 7-24 2-11-2-20-7-29z"/>
<glyph glyph-name="tab-phone" unicode="&#79;" d="M372 512l-232 0c-26 0-47-21-47-47l0-418c0-26 21-47 47-47l232 0c26 0 47 21 47 47l0 418c0 26-21 47-47 47z m-67-468l-93 0 0 47 93 0z m70 93l-233 0 0 326 233 0z"/>
<glyph glyph-name="code" unicode="&#72;" d="M171 85l-171 171 171 171 45-45-126-126 126-126z m175 342l171-171-171-171-44 45 125 126-125 126z"/>
<glyph glyph-name="integration" unicode="&#73;" d="M0 55l156 156 45-46-156-156z m311 457l0-64 82 0-101-101 45-46 102 102 0-83 64 0 0 192z m128-403l-394 394-45-46 393-393-82 0 0-64 192 0 0 192-64 0z"/>
<glyph glyph-name="lock" unicode="&#80;" d="M410 375l0 73c0 38-31 64-69 64l-170 0c-38 0-69-26-69-64l0-73c-37 0-68-30-68-68l0-239c0-37 31-68 68-68l308 0c37 0 68 31 68 68l0 239c0 38-31 68-68 68z m-239 69l170 0 0-69-170 0z m85-273c-28 0-51 23-51 51 0 28 23 51 51 51 28 0 51-23 51-51 0-28-23-51-51-51z"/>
<glyph glyph-name="notifications-spinner" unicode="&#81;" d="M495 178l-40-10c20 46 24 97 11 146-16 57-53 105-104 135-75 43-169 39-240-11l13-18c64 45 148 49 216 10 46-27 79-70 93-122 11-42 8-86-7-126l-10 36-21-6 20-75 75 20z m-345-95c-46 26-79 70-93 121-11 42-8 86 7 126l10-35 21 5-20 76-75-21 6-21 40 11c-20-46-24-97-10-146 15-58 52-106 103-136 35-19 73-29 111-29 46 0 91 13 129 40l-13 18c-64-44-148-48-216-9z"/>
<glyph glyph-name="tag-close" unicode="&#82;" d="M505 472l-33 33-216-216-216 216-33-33 216-216-216-216 33-33 216 216 216-216 33 33-216 216z"/>
<glyph glyph-name="cms-module" unicode="&#83;" d="M0 512l224 0 0-224-224 0z m288 0l224 0 0-224-224 0z m0-288l224 0 0-224-224 0z m-288 0l224 0 0-224-224 0z"/>
<glyph glyph-name="globe" unicode="&#84;" d="M256 512c-141 0-256-115-256-256 0-141 115-256 256-256 141 0 256 115 256 256 0 141-115 256-256 256z m0-465c-58 0-113 24-152 66 3 9 12 34 18 46 6 14 9 16 23 28l3 3c5 5 6 9 5 12-2 9-14 14-29 20-9 3-19 7-22 11-8 7-13 10-19 13-4 3-8 5-14 10-2 1-4 2-6 2-5 0-11-3-15-21-1 6-1 13-1 19 0 32 7 64 21 93 0-6 2-11 4-14 2-3 6-6 13-6 3 0 6 0 10 2 31 11 35 24 35 25l8 14c1-14 3-28 6-33 0-1 8-14 18-14 7 0 12 6 14 17l2 8c8 39 10 44 20 44 3 0 7 1 11 1 4 1 9 1 14 1 11 0 21-3 23-23 1-12 1-18-1-18-2 0-4 0-6 0-5 0-10-1-15-3-16-8-24-27-22-42 1-10 7-18 17-20 18-4 60-20 61-20 0 0 21-23 21-23l7-26c0 0 4-28 4-32l0-27c0-12 2-49 21-49 2 0 5 1 8 3 22 14 77 101 65 135-10 31-10 31 6 40 26 14 38 29 38 46 0 0 0 0 0 1 10-25 15-53 15-80 0-115-94-209-209-209z"/>
<glyph glyph-name="payment-process" unicode="&#85;" d="M256 512c-141 0-256-115-256-256 0-141 115-256 256-256 141 0 256 115 256 256 0 141-115 256-256 256z m36-304l-142 0 0 57 85 0 0 142 57 0z"/>
<glyph glyph-name="deleting" unicode="&#86;" d="M100 0l312 0 29 398-370 0z m-86 512l0-57 484 0 0 57z"/>
</font>
</defs>
</svg>
